# xmcd
#
# Track frame offsets: 
#        150
#        17392
#        38557
#        55127
#        87805
#        112765
#        140610
#        161660
#        181520
#        198770
#        214502
#        247142
#        275370
#        306685
#        325515
#
# Disc length: 4700 seconds
#
# Revision: 0
# Processed by: cddbd v1.5.1PL0 Copyright (c) Steve Scherf et al.
# Submitted via: ExactAudioCopy v0.95a5
#
DISCID=bd125a0f
DTITLE=Rory Gallagher - Brillant Outtakes, Demos and Specials
DYEAR=1900
DGENRE=Blues
TTITLE0=Hoodoo Woman
TTITLE1=Gipsy Woman
TTITLE2=The Cuckoo
TTITLE3=Who Do Man
TTITLE4=Used To Be
TTITLE5=Secret Agent
TTITLE6=Country Mile
TTITLE7=Keychain
TTITLE8=As The Crow Files
TTITLE9=Philby
TTITLE10=Born Under A Bad Sign
TTITLE11=I'm Ready
TTITLE12=Politician
TTITLE13=For The Last time
TTITLE14=Garbage Man
EXTD=
EXTT0=
EXTT1=
EXTT2=
EXTT3=
EXTT4=
EXTT5=
EXTT6=
EXTT7=
EXTT8=
EXTT9=
EXTT10=
EXTT11=
EXTT12=
EXTT13=
EXTT14=
PLAYORDER=
